<svg width="25" height="24" viewBox="0 0 25 24" fill="none" xmlns="http://www.w3.org/2000/svg">
<path fill-rule="evenodd" clip-rule="evenodd" d="M4.19684 2.95224C4.19677 2.95224 4.19692 2.95224 4.19684 2.95224H20.3031C20.594 2.95233 20.8789 3.03704 21.1226 3.19605C21.3663 3.35506 21.5584 3.5815 21.6757 3.84779C21.7929 4.11408 21.8302 4.40872 21.7829 4.69581C21.7358 4.98236 21.6065 5.24904 21.4107 5.4635C21.4103 5.46391 21.41 5.46433 21.4096 5.46474L15.25 12.2431V17.5462C15.2516 17.7957 15.1906 18.0416 15.0725 18.2615C14.9545 18.4809 14.7835 18.6673 14.5751 18.8035L11.578 20.7985L11.575 20.8005C11.3499 20.9487 11.0891 21.0336 10.8199 21.0461C10.5507 21.0587 10.2831 20.9985 10.0452 20.8719C9.80726 20.7453 9.60787 20.5569 9.46794 20.3266C9.32802 20.0962 9.25274 19.8325 9.25001 19.563L9.24993 19.5554L9.24997 12.2432L9.24798 12.2411L3.09036 5.46474C3.09002 5.46437 3.08969 5.46401 3.08935 5.46364C2.89352 5.24916 2.76416 4.98242 2.71699 4.69581C2.66975 4.40872 2.70702 4.11408 2.82426 3.84779C2.94151 3.5815 3.13367 3.35506 3.37733 3.19605C3.62084 3.03715 3.90527 2.95244 4.19603 2.95224M20.3029 4.45224H4.19708L4.19878 4.4541L10.3553 11.2291C10.6114 11.5054 10.7525 11.869 10.75 12.2458V19.5477L13.75 17.5509L13.7499 17.5491L13.75 12.2458C13.7474 11.869 13.8886 11.5054 14.1447 11.2291L20.3012 4.4541L20.3029 4.45224Z" fill="#2F3144" fill-opacity="0.65"/>
</svg>
