<svg width="25" height="24" viewBox="0 0 25 24" fill="none" xmlns="http://www.w3.org/2000/svg">
<path fill-rule="evenodd" clip-rule="evenodd" d="M5.05273 12C5.05273 11.5858 5.38852 11.25 5.80273 11.25H17.8027C18.2169 11.25 18.5527 11.5858 18.5527 12C18.5527 12.4142 18.2169 12.75 17.8027 12.75H5.80273C5.38852 12.75 5.05273 12.4142 5.05273 12Z" fill="#2F3144" fill-opacity="0.65"/>
<path fill-rule="evenodd" clip-rule="evenodd" d="M1.30273 7.5C1.30273 7.08579 1.63852 6.75 2.05273 6.75H21.5527C21.9669 6.75 22.3027 7.08579 22.3027 7.5C22.3027 7.91421 21.9669 8.25 21.5527 8.25H2.05273C1.63852 8.25 1.30273 7.91421 1.30273 7.5Z" fill="#2F3144" fill-opacity="0.65"/>
<path fill-rule="evenodd" clip-rule="evenodd" d="M8.80273 16.5C8.80273 16.0858 9.13852 15.75 9.55273 15.75H14.0527C14.4669 15.75 14.8027 16.0858 14.8027 16.5C14.8027 16.9142 14.4669 17.25 14.0527 17.25H9.55273C9.13852 17.25 8.80273 16.9142 8.80273 16.5Z" fill="#2F3144" fill-opacity="0.65"/>
</svg>
